<mxfile host="Electron" agent="Mozilla/5.0 (Macintosh; Intel Mac OS X 10_15_7) AppleWebKit/537.36 (KHTML, like Gecko) draw.io/26.2.15 Chrome/134.0.6998.205 Electron/35.2.1 Safari/537.36" version="26.2.15">
  <diagram name="Page-1" id="tqNoCmG_KPZSjwTlXW9H">
    <mxGraphModel dx="1106" dy="730" grid="1" gridSize="10" guides="1" tooltips="1" connect="1" arrows="1" fold="1" page="1" pageScale="1" pageWidth="535" pageHeight="245" math="1" shadow="0">
      <root>
        <mxCell id="0" />
        <mxCell id="1" parent="0" />
        <mxCell id="x9U-nPAiVc9QzHq05T93-1" value="" style="shape=ext;double=1;rounded=1;whiteSpace=wrap;html=1;" parent="1" vertex="1">
          <mxGeometry x="5" y="66" width="370" height="174" as="geometry" />
        </mxCell>
        <mxCell id="IsYYNjOj3wPygnvutGDe-58" value="" style="shape=ext;double=1;rounded=1;whiteSpace=wrap;html=1;" parent="1" vertex="1">
          <mxGeometry x="203" y="10" width="130" height="50" as="geometry" />
        </mxCell>
        <mxCell id="IsYYNjOj3wPygnvutGDe-57" value="" style="shape=ext;double=1;rounded=1;whiteSpace=wrap;html=1;" parent="1" vertex="1">
          <mxGeometry x="391" y="67" width="130" height="173" as="geometry" />
        </mxCell>
        <mxCell id="IsYYNjOj3wPygnvutGDe-32" value="" style="rounded=1;whiteSpace=wrap;html=1;fillColor=#1ba1e2;fontColor=#ffffff;strokeColor=#006EAF;arcSize=7;" parent="1" vertex="1">
          <mxGeometry x="290" y="100" width="80" height="80" as="geometry" />
        </mxCell>
        <mxCell id="IsYYNjOj3wPygnvutGDe-1" value="" style="rounded=1;whiteSpace=wrap;html=1;fillColor=#1ba1e2;fontColor=#ffffff;strokeColor=#006EAF;arcSize=7;" parent="1" vertex="1">
          <mxGeometry x="120" y="100" width="80" height="80" as="geometry" />
        </mxCell>
        <mxCell id="IsYYNjOj3wPygnvutGDe-3" value="&lt;div&gt;&lt;br&gt;&lt;/div&gt;Pre-trained&lt;div&gt;Weights&lt;/div&gt;&lt;div style=&quot;text-align: left;&quot;&gt;&lt;i style=&quot;vertical-align: super; background-color: transparent; color: light-dark(rgb(255, 255, 255), rgb(18, 18, 18));&quot;&gt;`\mathbf{W}_0 \in \mathbb{R}^{n \times m}`&amp;nbsp;&lt;/i&gt;&lt;/div&gt;" style="shape=ext;double=1;rounded=1;whiteSpace=wrap;html=1;fillColor=#1ba1e2;fontColor=#ffffff;strokeColor=#006EAF;" parent="1" vertex="1">
          <mxGeometry x="10" y="100" width="80" height="80" as="geometry" />
        </mxCell>
        <mxCell id="IsYYNjOj3wPygnvutGDe-4" value="&lt;font style=&quot;font-size: 16px;&quot;&gt;â‰ˆ&lt;/font&gt;" style="text;html=1;align=center;verticalAlign=middle;whiteSpace=wrap;rounded=0;" parent="1" vertex="1">
          <mxGeometry x="90" y="125" width="30" height="30" as="geometry" />
        </mxCell>
        <mxCell id="IsYYNjOj3wPygnvutGDe-5" value="Learnable" style="rounded=1;whiteSpace=wrap;html=1;fillColor=#f0a30a;fontColor=#000000;strokeColor=#BD7000;" parent="1" vertex="1">
          <mxGeometry x="268" y="16.25" width="60" height="15" as="geometry" />
        </mxCell>
        <mxCell id="IsYYNjOj3wPygnvutGDe-6" value="&lt;div style=&quot;&quot;&gt;&lt;i style=&quot;text-align: left; background-color: transparent; vertical-align: super;&quot;&gt;&lt;font style=&quot;color: rgb(0, 0, 0);&quot;&gt;`\mathbf{U} \in \mathbb{R}^{n \times k}`&amp;nbsp;&lt;/font&gt;&lt;/i&gt;&lt;/div&gt;" style="text;html=1;align=center;verticalAlign=middle;whiteSpace=wrap;rounded=0;" parent="1" vertex="1">
          <mxGeometry x="120" y="70" width="80" height="30" as="geometry" />
        </mxCell>
        <mxCell id="IsYYNjOj3wPygnvutGDe-7" value="&lt;b&gt;Knowledge-based SVD truncation&lt;/b&gt;" style="text;html=1;align=center;verticalAlign=middle;whiteSpace=wrap;rounded=0;" parent="1" vertex="1">
          <mxGeometry x="45" y="20" width="120" height="30" as="geometry" />
        </mxCell>
        <mxCell id="IsYYNjOj3wPygnvutGDe-8" value="Frozen" style="rounded=1;whiteSpace=wrap;html=1;fillColor=#1ba1e2;fontColor=#ffffff;strokeColor=#006EAF;" parent="1" vertex="1">
          <mxGeometry x="208" y="16.25" width="50" height="15" as="geometry" />
        </mxCell>
        <mxCell id="IsYYNjOj3wPygnvutGDe-9" value="Masked" style="rounded=1;whiteSpace=wrap;html=1;fillColor=#b0e3e6;strokeColor=#0e8088;" parent="1" vertex="1">
          <mxGeometry x="208" y="38.75" width="50" height="15" as="geometry" />
        </mxCell>
        <mxCell id="IsYYNjOj3wPygnvutGDe-11" value="Truncation" style="rounded=1;whiteSpace=wrap;html=1;dashed=1;fillColor=#f5f5f5;strokeColor=#666666;fontColor=#333333;" parent="1" vertex="1">
          <mxGeometry x="268" y="38.75" width="60" height="15" as="geometry" />
        </mxCell>
        <mxCell id="IsYYNjOj3wPygnvutGDe-12" value="" style="rounded=1;whiteSpace=wrap;html=1;fillColor=#ffe6cc;strokeColor=#d79b00;arcSize=50;" parent="1" vertex="1">
          <mxGeometry x="124" y="110" width="10" height="60" as="geometry" />
        </mxCell>
        <mxCell id="IsYYNjOj3wPygnvutGDe-13" value="" style="rounded=1;whiteSpace=wrap;html=1;fillColor=#e1d5e7;strokeColor=#9673a6;arcSize=50;" parent="1" vertex="1">
          <mxGeometry x="137" y="110" width="10" height="60" as="geometry" />
        </mxCell>
        <mxCell id="IsYYNjOj3wPygnvutGDe-14" value="" style="rounded=1;whiteSpace=wrap;html=1;fillColor=#f8cecc;strokeColor=#b85450;arcSize=50;" parent="1" vertex="1">
          <mxGeometry x="150" y="110" width="10" height="60" as="geometry" />
        </mxCell>
        <mxCell id="IsYYNjOj3wPygnvutGDe-18" value="" style="rounded=1;whiteSpace=wrap;html=1;dashed=1;fillColor=#f5f5f5;strokeColor=#666666;fontColor=#333333;" parent="1" vertex="1">
          <mxGeometry x="163" y="110" width="34" height="60" as="geometry" />
        </mxCell>
        <mxCell id="IsYYNjOj3wPygnvutGDe-22" value="" style="rounded=1;whiteSpace=wrap;html=1;fillColor=#e1d5e7;strokeColor=#9673a6;direction=south;arcSize=50;" parent="1" vertex="1">
          <mxGeometry x="300" y="118" width="60" height="10" as="geometry" />
        </mxCell>
        <mxCell id="IsYYNjOj3wPygnvutGDe-23" value="" style="rounded=1;whiteSpace=wrap;html=1;fillColor=#ffe6cc;strokeColor=#d79b00;arcSize=50;direction=south;" parent="1" vertex="1">
          <mxGeometry x="300" y="104" width="60" height="10" as="geometry" />
        </mxCell>
        <mxCell id="IsYYNjOj3wPygnvutGDe-24" value="" style="rounded=1;whiteSpace=wrap;html=1;fillColor=#f8cecc;strokeColor=#b85450;arcSize=50;direction=south;" parent="1" vertex="1">
          <mxGeometry x="300" y="131" width="60" height="10" as="geometry" />
        </mxCell>
        <mxCell id="IsYYNjOj3wPygnvutGDe-25" value="" style="rounded=1;whiteSpace=wrap;html=1;dashed=1;fillColor=#f5f5f5;strokeColor=#666666;fontColor=#333333;direction=south;" parent="1" vertex="1">
          <mxGeometry x="300" y="144" width="60" height="34" as="geometry" />
        </mxCell>
        <mxCell id="IsYYNjOj3wPygnvutGDe-26" value="&lt;i style=&quot;background-color: transparent; vertical-align: super;&quot;&gt;&lt;font style=&quot;color: rgb(0, 0, 0);&quot;&gt;`\mathbf{V}^\top \in \mathbb{R}^{k \times m}`&amp;nbsp;&lt;/font&gt;&lt;/i&gt;" style="text;whiteSpace=wrap;html=1;verticalAlign=middle;align=center;" parent="1" vertex="1">
          <mxGeometry x="290" y="70" width="80" height="30" as="geometry" />
        </mxCell>
        <mxCell id="IsYYNjOj3wPygnvutGDe-28" value="" style="strokeWidth=2;html=1;shape=mxgraph.flowchart.annotation_2;align=left;labelPosition=right;pointerEvents=1;direction=north;" parent="1" vertex="1">
          <mxGeometry x="124" y="180" width="35" height="15" as="geometry" />
        </mxCell>
        <mxCell id="IsYYNjOj3wPygnvutGDe-29" value="&lt;i style=&quot;background-color: transparent; text-align: left; vertical-align: super;&quot;&gt;&lt;font style=&quot;color: rgb(0, 0, 0);&quot;&gt;`\mathbf{\Sigma} \in \mathbb{R}^{k \times k}`&amp;nbsp;&lt;/font&gt;&lt;/i&gt;" style="text;html=1;align=center;verticalAlign=middle;whiteSpace=wrap;rounded=0;" parent="1" vertex="1">
          <mxGeometry x="205" y="70" width="80" height="30" as="geometry" />
        </mxCell>
        <mxCell id="IsYYNjOj3wPygnvutGDe-30" value="`k = m - r`" style="text;html=1;align=center;verticalAlign=middle;whiteSpace=wrap;rounded=0;" parent="1" vertex="1">
          <mxGeometry x="112" y="190" width="60" height="30" as="geometry" />
        </mxCell>
        <mxCell id="IsYYNjOj3wPygnvutGDe-31" value="" style="rounded=1;whiteSpace=wrap;html=1;fillColor=#1ba1e2;fontColor=#ffffff;strokeColor=#006EAF;arcSize=7;" parent="1" vertex="1">
          <mxGeometry x="205" y="100" width="80" height="80" as="geometry" />
        </mxCell>
        <mxCell id="IsYYNjOj3wPygnvutGDe-33" value="`\Delta \mathbf{U}^\top \Delta \mathbf{U} = \mathbf{I}`" style="shape=trapezoid;perimeter=trapezoidPerimeter;whiteSpace=wrap;html=1;fixedSize=1;fillColor=#f0a30a;fontColor=#000000;strokeColor=#BD7000;" parent="1" vertex="1">
          <mxGeometry x="396" y="155.5" width="120" height="30" as="geometry" />
        </mxCell>
        <mxCell id="IsYYNjOj3wPygnvutGDe-34" value="`\Delta \mathbf{V}^\top \Delta \mathbf{V} = \mathbf{I}`" style="shape=trapezoid;perimeter=trapezoidPerimeter;whiteSpace=wrap;html=1;fixedSize=1;fillColor=#f0a30a;fontColor=#000000;strokeColor=#BD7000;direction=west;" parent="1" vertex="1">
          <mxGeometry x="396" y="94.5" width="120" height="30" as="geometry" />
        </mxCell>
        <mxCell id="IsYYNjOj3wPygnvutGDe-35" value="`\Delta \Sigma(`&amp;nbsp; &amp;nbsp; &amp;nbsp; &amp;nbsp; &amp;nbsp; &amp;nbsp; &amp;nbsp; `\cdots`&amp;nbsp; &amp;nbsp; &amp;nbsp; `)`" style="rounded=1;whiteSpace=wrap;html=1;fillColor=#f0a30a;fontColor=#000000;strokeColor=#BD7000;dashed=1;align=left;" parent="1" vertex="1">
          <mxGeometry x="396" y="130.5" width="120" height="20" as="geometry" />
        </mxCell>
        <mxCell id="IsYYNjOj3wPygnvutGDe-36" value="&lt;i style=&quot;forced-color-adjust: none; color: rgb(0, 0, 0); font-family: Helvetica; font-size: 12px; font-variant-ligatures: normal; font-variant-caps: normal; font-weight: 400; letter-spacing: normal; orphans: 2; text-align: left; text-indent: 0px; text-transform: none; widows: 2; word-spacing: 0px; -webkit-text-stroke-width: 0px; white-space: normal; background-color: transparent; text-decoration-thickness: initial; text-decoration-style: initial; text-decoration-color: initial; vertical-align: super;&quot;&gt;&lt;font style=&quot;forced-color-adjust: none; color: rgb(0, 0, 0);&quot;&gt;`\Delta \mathbf{V}^\top \in \mathbb{R}^{r \times m}`&amp;nbsp;&lt;/font&gt;&lt;/i&gt;" style="text;whiteSpace=wrap;html=1;" parent="1" vertex="1">
          <mxGeometry x="415" y="64.5" width="80" height="30" as="geometry" />
        </mxCell>
        <mxCell id="IsYYNjOj3wPygnvutGDe-37" value="" style="rounded=1;whiteSpace=wrap;html=1;fillColor=#fff2cc;strokeColor=#d6b656;" parent="1" vertex="1">
          <mxGeometry x="208" y="104" width="10" height="10" as="geometry" />
        </mxCell>
        <mxCell id="IsYYNjOj3wPygnvutGDe-38" value="&lt;i style=&quot;forced-color-adjust: none; color: rgb(0, 0, 0); font-family: Helvetica; font-size: 12px; font-variant-ligatures: normal; font-variant-caps: normal; font-weight: 400; letter-spacing: normal; orphans: 2; text-align: left; text-indent: 0px; text-transform: none; widows: 2; word-spacing: 0px; -webkit-text-stroke-width: 0px; white-space: normal; background-color: transparent; text-decoration-thickness: initial; text-decoration-style: initial; text-decoration-color: initial; vertical-align: super;&quot;&gt;&lt;font style=&quot;forced-color-adjust: none; color: rgb(0, 0, 0);&quot;&gt;`\Delta \mathbf{U} \in \mathbb{R}^{n \times r}`&amp;nbsp;&lt;/font&gt;&lt;/i&gt;" style="text;whiteSpace=wrap;html=1;" parent="1" vertex="1">
          <mxGeometry x="412" y="185.5" width="90" height="30" as="geometry" />
        </mxCell>
        <mxCell id="IsYYNjOj3wPygnvutGDe-39" value="" style="rounded=1;whiteSpace=wrap;html=1;fillColor=#e1d5e7;strokeColor=#9673a6;" parent="1" vertex="1">
          <mxGeometry x="220" y="116" width="10" height="10" as="geometry" />
        </mxCell>
        <mxCell id="IsYYNjOj3wPygnvutGDe-40" value="" style="rounded=1;whiteSpace=wrap;html=1;fillColor=#f8cecc;strokeColor=#b85450;" parent="1" vertex="1">
          <mxGeometry x="232" y="128" width="10" height="10" as="geometry" />
        </mxCell>
        <mxCell id="IsYYNjOj3wPygnvutGDe-41" value="" style="rounded=1;whiteSpace=wrap;html=1;fillColor=#b0e3e6;strokeColor=#0e8088;" parent="1" vertex="1">
          <mxGeometry x="208" y="128" width="10" height="10" as="geometry" />
        </mxCell>
        <mxCell id="IsYYNjOj3wPygnvutGDe-42" value="" style="rounded=1;whiteSpace=wrap;html=1;fillColor=#b0e3e6;strokeColor=#0e8088;" parent="1" vertex="1">
          <mxGeometry x="220" y="128" width="10" height="10" as="geometry" />
        </mxCell>
        <mxCell id="IsYYNjOj3wPygnvutGDe-43" value="" style="rounded=1;whiteSpace=wrap;html=1;fillColor=#b0e3e6;strokeColor=#0e8088;" parent="1" vertex="1">
          <mxGeometry x="208" y="116" width="10" height="10" as="geometry" />
        </mxCell>
        <mxCell id="IsYYNjOj3wPygnvutGDe-44" value="" style="rounded=1;whiteSpace=wrap;html=1;fillColor=#b0e3e6;strokeColor=#0e8088;arcSize=19;" parent="1" vertex="1">
          <mxGeometry x="232" y="116" width="10" height="10" as="geometry" />
        </mxCell>
        <mxCell id="IsYYNjOj3wPygnvutGDe-45" value="" style="rounded=1;whiteSpace=wrap;html=1;fillColor=#b0e3e6;strokeColor=#0e8088;arcSize=19;" parent="1" vertex="1">
          <mxGeometry x="220" y="104" width="10" height="10" as="geometry" />
        </mxCell>
        <mxCell id="IsYYNjOj3wPygnvutGDe-47" value="" style="rounded=1;whiteSpace=wrap;html=1;fillColor=#b0e3e6;strokeColor=#0e8088;arcSize=19;" parent="1" vertex="1">
          <mxGeometry x="232" y="104" width="10" height="10" as="geometry" />
        </mxCell>
        <mxCell id="IsYYNjOj3wPygnvutGDe-48" value="" style="rounded=1;whiteSpace=wrap;html=1;dashed=1;fillColor=#f5f5f5;strokeColor=#666666;fontColor=#333333;" parent="1" vertex="1">
          <mxGeometry x="208" y="140" width="34" height="38" as="geometry" />
        </mxCell>
        <mxCell id="IsYYNjOj3wPygnvutGDe-49" value="" style="rounded=1;whiteSpace=wrap;html=1;dashed=1;fillColor=#f5f5f5;strokeColor=#666666;fontColor=#333333;" parent="1" vertex="1">
          <mxGeometry x="245" y="140" width="38" height="38" as="geometry" />
        </mxCell>
        <mxCell id="IsYYNjOj3wPygnvutGDe-50" value="" style="rounded=1;whiteSpace=wrap;html=1;dashed=1;fillColor=#f5f5f5;strokeColor=#666666;fontColor=#333333;direction=south;" parent="1" vertex="1">
          <mxGeometry x="245" y="104" width="38" height="34" as="geometry" />
        </mxCell>
        <mxCell id="IsYYNjOj3wPygnvutGDe-52" value="" style="rounded=1;whiteSpace=wrap;html=1;fillColor=#60a917;strokeColor=#2D7600;fontColor=#ffffff;" parent="1" vertex="1">
          <mxGeometry x="427" y="135.5" width="10" height="10" as="geometry" />
        </mxCell>
        <mxCell id="IsYYNjOj3wPygnvutGDe-53" value="" style="rounded=1;whiteSpace=wrap;html=1;fillColor=#6a00ff;strokeColor=#3700CC;fontColor=#ffffff;" parent="1" vertex="1">
          <mxGeometry x="443" y="135.5" width="10" height="10" as="geometry" />
        </mxCell>
        <mxCell id="IsYYNjOj3wPygnvutGDe-54" value="" style="rounded=1;whiteSpace=wrap;html=1;fillColor=#a20025;strokeColor=#6F0000;fontColor=#ffffff;" parent="1" vertex="1">
          <mxGeometry x="459" y="135.5" width="10" height="10" as="geometry" />
        </mxCell>
        <mxCell id="IsYYNjOj3wPygnvutGDe-55" value="" style="rounded=1;whiteSpace=wrap;html=1;fillColor=#6d8764;strokeColor=#3A5431;fontColor=#ffffff;" parent="1" vertex="1">
          <mxGeometry x="494" y="135.5" width="10" height="10" as="geometry" />
        </mxCell>
        <mxCell id="IsYYNjOj3wPygnvutGDe-56" value="Knowledge-aware singular-value adaptation" style="text;whiteSpace=wrap;fontStyle=1;align=center;" parent="1" vertex="1">
          <mxGeometry x="380" y="15" width="150" height="40" as="geometry" />
        </mxCell>
        <mxCell id="x9U-nPAiVc9QzHq05T93-3" value="&lt;div&gt;&lt;span style=&quot;background-color: transparent; color: light-dark(rgb(0, 0, 0), rgb(255, 255, 255));&quot;&gt;`W_{\text{world}} = U[:m-r] \Sigma[:m-r] V[:m-r]^\top`&lt;/span&gt;&lt;/div&gt;" style="text;html=1;align=center;verticalAlign=middle;whiteSpace=wrap;rounded=0;" parent="1" vertex="1">
          <mxGeometry x="50" y="210" width="300" height="30" as="geometry" />
        </mxCell>
        <mxCell id="x9U-nPAiVc9QzHq05T93-4" value="`\Delta W=\Delta U \Delta \Sigma \Delta V^\top`" style="text;whiteSpace=wrap;" parent="1" vertex="1">
          <mxGeometry x="393" y="207" width="126" height="25" as="geometry" />
        </mxCell>
        <mxCell id="5W_ty8Zf1DgaNsVqZlqp-1" value="`+`" style="text;html=1;align=center;verticalAlign=middle;resizable=0;points=[];autosize=1;strokeColor=none;fillColor=none;fontSize=16;" parent="1" vertex="1">
          <mxGeometry x="363" y="138" width="40" height="30" as="geometry" />
        </mxCell>
      </root>
    </mxGraphModel>
  </diagram>
</mxfile>
